<?xml version="1.0" encoding="UTF-8"?>
<svg id="Layer_1" xmlns="http://www.w3.org/2000/svg" xmlns:xlink="http://www.w3.org/1999/xlink" version="1.1" viewBox="0 0 864 504">
  <!-- Generator: Adobe Illustrator 29.2.1, SVG Export Plug-In . SVG Version: 2.1.0 Build 116)  -->
  <defs>
    <style>
      .st0 {
        fill: #231f20;
      }

      .st1 {
        fill: url(#linear-gradient);
      }
    </style>
    <linearGradient id="linear-gradient" x1="311.33" y1="254.8" x2="585.06" y2="254.8" gradientUnits="userSpaceOnUse">
      <stop offset="0" stop-color="#f7941d"/>
      <stop offset=".15" stop-color="#e01f26"/>
      <stop offset=".3" stop-color="#662b82"/>
      <stop offset=".46" stop-color="#332f81"/>
      <stop offset=".63" stop-color="#209dd8"/>
      <stop offset=".8" stop-color="#3ba949"/>
      <stop offset="1" stop-color="#fdeb07"/>
    </linearGradient>
  </defs>
  <path class="st0" d="M328.87,235.87c.97.8,2.12,1.21,3.42,1.21s2.38-.41,3.32-1.22c.92-.79,1.55-1.92,1.88-3.35l6.77-29.26c.12-.53.24-.68.26-.71.04-.04.07-.06.15-.06.06,0,.13,0,.15.03.02.03.14.19.26.75l7.05,28.71c.44,1.67,1.08,2.93,1.93,3.75.88.86,2.07,1.3,3.54,1.3s2.68-.49,3.55-1.47c.82-.92,1.37-2.14,1.65-3.61l6.76-33.88h-4.9l-6.43,33.02c-.1.54-.23.96-.41,1.23-.1.16-.21.22-.39.22-.28,0-.38-.1-.45-.21-.12-.19-.32-.57-.52-1.29l-7.11-28.92c-.33-1.4-.92-2.45-1.76-3.11-.84-.67-1.83-1-2.94-1s-2.05.35-2.89,1.04c-.83.68-1.42,1.74-1.75,3.14l-6.72,28.94c-.15.73-.35,1.07-.49,1.23-.15.17-.32.25-.53.25-.11,0-.24-.03-.38-.23-.13-.18-.31-.54-.47-1.25l-7.16-33.05h-4.91l7.56,34.33c.33,1.51.98,2.68,1.95,3.48Z"/>
  <path class="st0" d="M367.77,222.26c0,2.77.64,5.3,1.89,7.51,1.25,2.22,3.01,4.01,5.21,5.3,2.2,1.3,4.7,1.95,7.44,1.95,2.58,0,4.96-.58,7.06-1.75,2.12-1.17,3.84-2.94,5.12-5.25l.32-.58-3.82-2.07-.32.56c-.89,1.58-2.07,2.73-3.51,3.43-1.48.71-3.11,1.07-4.85,1.07-2.05,0-3.86-.5-5.39-1.5-1.54-1-2.72-2.36-3.51-4.04-.4-.84-.68-1.74-.84-2.7h22.72v-2.71c0-2.66-.57-5.06-1.69-7.15-1.13-2.09-2.72-3.77-4.74-4.97-2.03-1.2-4.44-1.81-7.17-1.81s-5.2.67-7.29,1.99c-2.09,1.31-3.74,3.11-4.89,5.33-1.16,2.21-1.74,4.7-1.74,7.39ZM374.02,216.38c.78-1.3,1.83-2.35,3.12-3.1,1.3-.75,2.83-1.13,4.56-1.13s3.22.36,4.51,1.06c1.3.7,2.35,1.7,3.11,2.98.67,1.12,1.06,2.43,1.17,3.91h-17.82c.23-1.35.68-2.6,1.34-3.72Z"/>
  <path class="st0" d="M325.19,249.32c2.56-1.55,5.41-2.33,8.58-2.33s6.02.78,8.57,2.33c2.56,1.54,4.57,3.63,6.07,6.24,1.49,2.61,2.24,5.47,2.24,8.57s-.75,5.95-2.24,8.53c-.78,1.35-1.7,2.55-2.76,3.6,4.02-3.04,6.61-7.78,9.24-13.27.33-.68.66-1.37.99-2.07-.35-2.97-1.27-5.69-2.69-8.19-1.93-3.37-4.57-6.04-7.91-8-3.35-1.97-7.13-2.95-11.35-2.95-3.76,0-7.17.89-10.24,2.69-2.17,1.25-4.02,2.8-5.55,4.65v8.26c.26-.63.57-1.25.92-1.84,1.53-2.61,3.57-4.7,6.12-6.24Z"/>
  <path class="st0" d="M399.18,262.31c-1.86-2.52-3.72-4.97-5.71-7.1.84,1.87,1.29,4,1.33,6.37h-30.6c-.41.83-.83,1.7-1.26,2.61l-.16.34c-.76,1.61-1.55,3.29-2.4,4.93-.23.45-.46.89-.7,1.33.47,1.6,1.1,3.11,1.91,4.57,1.91,3.36,4.54,6.04,7.88,8,3.33,1.97,7.09,2.94,11.25,2.94,3.93,0,7.49-.87,10.68-2.63,3.2-1.76,5.76-4.4,7.7-7.91l-4.22-2.3c-1.53,2.7-3.53,4.65-6.03,5.86-2.49,1.2-5.2,1.8-8.13,1.8-3.46,0-6.49-.85-9.1-2.56s-4.59-3.97-5.93-6.81c-.85-1.79-1.37-3.7-1.57-5.76h36.13v-2.2c-.17-.23-.33-.44-.49-.66l-.59-.82Z"/>
  <path class="st1" d="M551.57,256.85c-3.56,5.2-4.65,11.61-8.3,16.69-3.2,4.46-8.07,7.64-13.71,7.43-11.39-.42-16.66-11.62-21.42-20.3-3.7-6.74-7.91-13.75-15.25-16.98-6.21-2.73-13.64-2.55-19.65.61-6.71,3.52-9.94,10.67-12.92,17.26-.47,1.06-.95,2.1-1.44,3.15-1.97,4.24-4.27,8.55-7.87,11.64-6.32,5.42-15.2,5.88-22.86,3.43-10.05-3.21-16.36-11.15-22.33-19.33-.36-.49-.72-.99-1.08-1.48-3.84-5.27-8.19-11.21-14.05-14.44-2.27-1.26-4.78-2.05-7.33-2.51-10.3-1.86-17.98,3.79-22.79,12.47-3.5,6.31-5.94,13.28-10.47,18.98-5.75,7.24-16.67,10.39-24.91,5.38-2.55-1.54-4.59-3.61-6.12-6.2-1.33-2.25-2.08-4.71-2.24-7.36-.02-.38-.04-.77-.04-1.17s.02-.78.04-1.16v-12.06s-.04.03-.04.05v-27.83h-5.46v40.99c0,4.17,1,7.92,2.99,11.3.75,1.23,1.57,2.4,2.51,3.44,1.57,1.8,3.44,3.32,5.58,4.56,9.56,5.54,22.88,3.16,30.31-4.85,6.26-6.74,8.59-15.62,13.32-23.29,4.68-7.58,13.47-10.8,21.75-6.38.15.08.29.16.43.25,4.55,2.61,8.19,7.18,11.99,12.35,5.6,7.6,11.01,15.37,19.46,20,6.82,3.74,14.95,5.67,22.69,4.33,5.88-1.02,11.2-4.04,15.01-8.64,2.24-2.7,3.96-5.79,5.49-8.93.75-1.54,1.44-3.08,2.14-4.6,1.94-4.26,3.78-8.87,7.09-12.29,4.91-5.07,13.45-5.72,19.59-2.6,5.93,3.01,9.26,9.33,12.26,14.96,2.46,4.62,4.84,9.37,8.17,13.44,9.24,11.29,26.29,11.98,35.1-.15,3.01-4.15,4.17-9,6.39-13.52,1.63-3.32,3.88-6.37,6.65-8.82,6.02-5.35,14.06-7.4,21.95-7.77.24-.01,2.85-.09,2.85-.06v-5.14c-15.39,0-26.61,5.08-33.48,15.12Z"/>
  <path class="st0" d="M404.74,269.82v15.6h5.45v-9.3c-.33-.32-.64-.64-.96-.99-1.42-1.51-2.84-3.21-4.49-5.31Z"/>
  <path class="st0" d="M406.33,258.95l.55.74c1.19,1.65,2.26,3.1,3.31,4.47v-41.01h-5.45v33.62c.36.49.71.98,1.06,1.45l.53.74Z"/>
  <path class="st0" d="M416.77,271.66c3.29,3.11,6.69,5.29,10.39,6.58-2.15-1.48-3.92-3.37-5.27-5.66-1.51-2.57-2.28-5.42-2.28-8.53s.77-5.95,2.28-8.53c1.53-2.59,3.57-4.66,6.11-6.2,2.56-1.55,5.41-2.33,8.58-2.33s6.03.78,8.57,2.33c2.56,1.54,4.57,3.61,6.07,6.2,1.49,2.58,2.24,5.41,2.24,8.53s-.75,5.96-2.24,8.53c-1.1,1.91-2.5,3.53-4.18,4.87,5.29-2.8,8.09-7.87,10.64-13.28l.09-.17c.34-.74.68-1.49,1.03-2.25-.29-3.19-1.23-6.17-2.83-8.92-1.97-3.36-4.61-6.05-7.96-8.04-3.33-1.99-7.15-2.99-11.43-2.99s-7.95,1-11.35,2.99c-3.4,1.99-6.1,4.67-8.09,8-2,3.35-2.99,7.07-2.99,11.17,0,2.04.25,3.98.74,5.83.63.68,1.26,1.3,1.88,1.87Z"/>
  <path class="st0" d="M464.06,268.86c-.38.79-.78,1.58-1.18,2.36v14.21h5.44v-21.37c0-2.17.29-4.23.88-6.14-1.01,1.9-1.97,4.03-2.99,6.31-.64,1.42-1.37,3.04-2.15,4.64Z"/>
  <path class="st0" d="M502.79,264.36c-2.42-4.54-4.68-8.45-7.5-11.27.55.79,1.04,1.65,1.44,2.56,1.17,2.62,1.76,5.44,1.76,8.49v21.29h5.46v-18.89c-.12-.23-.24-.44-.36-.67-.26-.5-.54-1.02-.81-1.51Z"/>
  <path class="st0" d="M510.49,262.26c1.21,2.28,2.35,4.46,3.54,6.45-.45-1.54-.68-3.15-.68-4.84,0-3.11.75-5.94,2.28-8.48,1.53-2.56,3.56-4.59,6.12-6.12,2.54-1.51,5.37-2.28,8.48-2.28s6.03.76,8.57,2.28c2.56,1.53,4.58,3.56,6.11,6.12,1.24,2.05,1.98,4.3,2.2,6.73.96-2.17,2.1-4.19,3.35-6.01.18-.25.36-.5.54-.75-.38-.91-.83-1.8-1.34-2.66-1.99-3.33-4.67-5.98-8.04-7.95-3.38-1.97-7.17-2.95-11.39-2.95s-8.01,1-11.39,2.99c-3.37,1.99-6.04,4.68-8,8.04-1.06,1.83-1.85,3.76-2.33,5.79.26.47.53.96.78,1.43.4.74.78,1.46,1.19,2.22Z"/>
  <path class="st0" d="M547.22,279.19v2.53c0,3.81-.75,7.16-2.25,10.04-1.49,2.87-3.56,5.1-6.2,6.68-2.63,1.58-5.68,2.38-9.14,2.38s-6.38-.7-9.11-2.11c-2.72-1.41-4.85-3.45-6.37-6.15l-4.57,2.56c1.94,3.57,4.71,6.28,8.31,8.13,3.61,1.85,7.55,2.77,11.84,2.77s8.4-1,11.88-2.99c3.45-1.99,6.17-4.8,8.13-8.4,1.97-3.61,2.94-7.84,2.94-12.71v-12.61c-1.14,3.24-2.63,6.11-4.37,8.53-.34.47-.7.93-1.07,1.37Z"/>
</svg>